<?xml version="1.0" encoding="utf-8"?>
<!-- Generator: Adobe Illustrator 21.0.0, SVG Export Plug-In . SVG Version: 6.00 Build 0)  -->
<svg version="1.1"
	 id="svg2" inkscape:version="0.48.4 r9939" sodipodi:docname="football.svg" xmlns:cc="http://creativecommons.org/ns#" xmlns:dc="http://purl.org/dc/elements/1.1/" xmlns:inkscape="http://www.inkscape.org/namespaces/inkscape" xmlns:rdf="http://www.w3.org/1999/02/22-rdf-syntax-ns#" xmlns:sodipodi="http://sodipodi.sourceforge.net/DTD/sodipodi-0.dtd" xmlns:svg="http://www.w3.org/2000/svg"
	 xmlns="http://www.w3.org/2000/svg" xmlns:xlink="http://www.w3.org/1999/xlink" x="0px" y="0px" viewBox="0 0 32 32"
	 style="enable-background:new 0 0 32 32;" xml:space="preserve">
<style type="text/css">
	.st0{fill:#FFFFFF;}
</style>
<sodipodi:namedview  bordercolor="#ffffff" borderopacity="1" gridtolerance="10" guidetolerance="10" id="namedview249" inkscape:current-layer="svg2" inkscape:cx="16" inkscape:cy="16" inkscape:pageopacity="0" inkscape:pageshadow="2" inkscape:window-height="480" inkscape:window-maximized="0" inkscape:window-width="640" inkscape:window-x="53" inkscape:window-y="31" inkscape:zoom="7.375" objecttolerance="10" pagecolor="#ffffff" showgrid="false">
	</sodipodi:namedview>
<path id="path247" inkscape:connector-curvature="0" class="st0" d="M30,2c-0.5-0.5-4.1-0.7-8.5,0c0.3,0.2,0.6,0.4,1,0.5
	c2.5,1.4,5.6,4.5,7,7l0.5,1C30.7,6.1,30.5,2.5,30,2z M18,4l-1.4-0.9C13.5,4.1,10.3,5.7,8,8c-2.3,2.3-3.9,5.5-4.9,8.6
	C3.4,17.1,3.7,17.5,4,18c2.2,3.3,6.7,7.8,10,10l1.4,0.9c3.2-1,6.3-2.6,8.6-4.9s3.9-5.5,4.9-8.6c-0.3-0.4-0.6-0.9-0.9-1.4
	C25.8,10.7,21.3,6.2,18,4z M21.7,13.7C21.5,13.9,21.3,14,21,14s-0.5-0.1-0.7-0.3L20,13.4L19.4,14l0.3,0.3c0.4,0.4,0.4,1,0,1.4
	C19.5,15.9,19.3,16,19,16s-0.5-0.1-0.7-0.3L18,15.4L17.4,16l0.3,0.3c0.4,0.4,0.4,1,0,1.4C17.5,17.9,17.3,18,17,18s-0.5-0.1-0.7-0.3
	L16,17.4L15.4,18l0.3,0.3c0.4,0.4,0.4,1,0,1.4C15.5,19.9,15.3,20,15,20s-0.5-0.1-0.7-0.3L14,19.4L13.4,20l0.3,0.3
	c0.4,0.4,0.4,1,0,1.4C13.5,21.9,13.3,22,13,22s-0.5-0.1-0.7-0.3l-2-2c-0.4-0.4-0.4-1,0-1.4c0.4-0.4,1-0.4,1.4,0l0.3,0.3l0.6-0.6
	l-0.3-0.3c-0.4-0.4-0.4-1,0-1.4c0.4-0.4,1-0.4,1.4,0l0.3,0.3l0.6-0.6l-0.3-0.3c-0.4-0.4-0.4-1,0-1.4c0.4-0.4,1-0.4,1.4,0l0.3,0.3
	l0.6-0.6l-0.3-0.3c-0.4-0.4-0.4-1,0-1.4c0.4-0.4,1-0.4,1.4,0l0.3,0.3l0.6-0.6l-0.3-0.3c-0.4-0.4-0.4-1,0-1.4c0.4-0.4,1-0.4,1.4,0
	l2,2C22.1,12.7,22.1,13.3,21.7,13.7z M2.5,22.5l-0.5-1c-0.7,4.4-0.4,8,0,8.5s4.1,0.7,8.5,0c-0.3-0.2-0.6-0.4-1-0.5
	C7,28.1,3.9,25,2.5,22.5z"/>
</svg>
